<svg id="Layer_1" data-name="Layer 1" xmlns="http://www.w3.org/2000/svg" viewBox="0 0 314 415"><defs><style>.cls-1{fill:#ffe6bf;}.cls-2{fill:#ffcc34;}</style></defs><title>PassON</title><rect class="cls-1" width="314" height="415" rx="96.82"/><circle class="cls-2" cx="157" cy="176.5" r="101.04"/><path class="cls-2" d="M429.3,292.36A117.34,117.34,0,1,0,546.63,409.69,117.33,117.33,0,0,0,429.3,292.36Zm0,210.68a93.35,93.35,0,1,1,93.35-93.35A93.34,93.34,0,0,1,429.3,503Z" transform="translate(-272.3 -233.19)"/><rect x="129.12" y="116.27" width="25.83" height="128.45"/><path d="M454.79,349.59v-.12H432.41v53.77h22.38v-.12c12.55-1.26,22.39-12.76,22.39-26.77S467.34,350.84,454.79,349.59Z" transform="translate(-272.3 -233.19)"/><path d="M339.54,605v-1.58l3.33-1a1.41,1.41,0,0,0,.59-.35,1,1,0,0,0,.24-.71V578.43a1,1,0,0,0-.23-.68,1.35,1.35,0,0,0-.6-.34l-3.33-1.07V574.8h12.52a18.8,18.8,0,0,1,5.8.84,8.93,8.93,0,0,1,4.15,2.65,7,7,0,0,1,1.55,4.71,10.06,10.06,0,0,1-1.35,5.3,9.12,9.12,0,0,1-3.72,3.43,11.65,11.65,0,0,1-5.41,1.21,8.43,8.43,0,0,1-2.6-.5,10.66,10.66,0,0,1-2.45-1.11v-1.56a10.55,10.55,0,0,0,2,.32c.87.07,1.68.1,2.43.1a6.46,6.46,0,0,0,3.28-.71,5.15,5.15,0,0,0,1.85-1.76,6.64,6.64,0,0,0,.84-2.07,9.3,9.3,0,0,0,.2-1.64,8.36,8.36,0,0,0-.64-3.29,5.08,5.08,0,0,0-2.26-2.45,9.25,9.25,0,0,0-4.61-.94h-2.88v24a1,1,0,0,0,.24.71,1.51,1.51,0,0,0,.6.35l3.53,1V605Z" transform="translate(-272.3 -233.19)"/><path d="M363.54,605v-1.58l2.21-1a2,2,0,0,0,1.1-1.16l8.82-22,2.55-5h2.45l10.94,27.08a3.19,3.19,0,0,0,.42.69,1.37,1.37,0,0,0,.62.47l2.3.89V605H383.47v-1.58l3.63-1.22-7.75-19.34-.84-2.85h-.37l-8.56,22.08,3.68,1.33V605Zm8.66-10.61,1.06-2.93h10l1.06,2.93Z" transform="translate(-272.3 -233.19)"/><path d="M397.76,603.84l-.13-8.08h2.56l.91,4.37a1.13,1.13,0,0,0,.4.59,5.47,5.47,0,0,0,.57.46,18.87,18.87,0,0,0,1.8,1,11.56,11.56,0,0,0,2.07.75,8.82,8.82,0,0,0,2.24.29,8.72,8.72,0,0,0,5.31-1.44,4.63,4.63,0,0,0,1.92-3.92,4.36,4.36,0,0,0-1.14-3.1,8.63,8.63,0,0,0-3.08-2c-1.24-.5-2.47-.93-3.67-1.29s-2.39-.77-3.54-1.24a9.61,9.61,0,0,1-4.12-3,7.37,7.37,0,0,1-1.49-4.64,7.17,7.17,0,0,1,1.39-4.35,9.65,9.65,0,0,1,3.78-3,12.49,12.49,0,0,1,5.33-1.11,26.14,26.14,0,0,1,3.39.21c1.08.14,2.1.32,3.08.53s1.9.42,2.78.63v7.74h-2.53l-.87-4.13a1.07,1.07,0,0,0-.39-.58,4.62,4.62,0,0,0-.58-.45,6.66,6.66,0,0,0-1.23-.67,8.7,8.7,0,0,0-1.61-.49,8.9,8.9,0,0,0-1.91-.19,7.87,7.87,0,0,0-4.77,1.26,3.74,3.74,0,0,0-1.7,3.1,5.49,5.49,0,0,0,.92,3.07A6.77,6.77,0,0,0,407,586.5c1.15.41,2.29.8,3.4,1.16s2.32.82,3.64,1.35a14.07,14.07,0,0,1,2.78,1.54A7.58,7.58,0,0,1,419,593a7.31,7.31,0,0,1,.85,3.7,8.49,8.49,0,0,1-1.23,4.38,8.92,8.92,0,0,1-3.9,3.38,15.9,15.9,0,0,1-7,1.31,18,18,0,0,1-3.17-.3c-1.11-.19-2.24-.44-3.4-.74Z" transform="translate(-272.3 -233.19)"/><path d="M425.16,603.84l-.13-8.08h2.56l.91,4.37a1.13,1.13,0,0,0,.4.59,5.47,5.47,0,0,0,.57.46,18.87,18.87,0,0,0,1.8,1,11.56,11.56,0,0,0,2.07.75,8.82,8.82,0,0,0,2.24.29,8.72,8.72,0,0,0,5.31-1.44,4.63,4.63,0,0,0,1.92-3.92,4.36,4.36,0,0,0-1.14-3.1,8.63,8.63,0,0,0-3.08-2c-1.24-.5-2.46-.93-3.67-1.29s-2.39-.77-3.54-1.24a9.61,9.61,0,0,1-4.12-3,7.37,7.37,0,0,1-1.49-4.64,7.11,7.11,0,0,1,1.4-4.35,9.54,9.54,0,0,1,3.77-3,12.49,12.49,0,0,1,5.33-1.11,26.14,26.14,0,0,1,3.39.21c1.08.14,2.1.32,3.08.53s1.9.42,2.78.63v7.74H443l-.87-4.13a1.07,1.07,0,0,0-.39-.58,4.62,4.62,0,0,0-.58-.45,6.66,6.66,0,0,0-1.23-.67,8.7,8.7,0,0,0-1.61-.49,8.9,8.9,0,0,0-1.91-.19,7.87,7.87,0,0,0-4.77,1.26,3.74,3.74,0,0,0-1.7,3.1,5.49,5.49,0,0,0,.92,3.07,6.77,6.77,0,0,0,3.54,2.37c1.15.41,2.29.8,3.4,1.16s2.32.82,3.64,1.35a14.07,14.07,0,0,1,2.78,1.54A7.58,7.58,0,0,1,446.4,593a7.31,7.31,0,0,1,.86,3.7,8.5,8.5,0,0,1-1.24,4.38,8.92,8.92,0,0,1-3.9,3.38,15.9,15.9,0,0,1-7,1.31,18,18,0,0,1-3.17-.3c-1.11-.19-2.24-.44-3.4-.74Z" transform="translate(-272.3 -233.19)"/><path d="M467,605.74a16.05,16.05,0,0,1-8.16-1.94,12.66,12.66,0,0,1-5.09-5.5,18.94,18.94,0,0,1-1.74-8.42,17.9,17.9,0,0,1,1.79-8.15,13.55,13.55,0,0,1,5.17-5.59,15.31,15.31,0,0,1,8.07-2,15.58,15.58,0,0,1,8.43,2.08,12.65,12.65,0,0,1,4.92,5.64,19.27,19.27,0,0,1,1.62,8.06,19.79,19.79,0,0,1-.87,5.83,15.36,15.36,0,0,1-2.67,5.1,12.83,12.83,0,0,1-4.66,3.6A16.09,16.09,0,0,1,467,605.74Zm.39-2.49a8.66,8.66,0,0,0,5.32-1.6,9.6,9.6,0,0,0,3.22-4.47,18.55,18.55,0,0,0,1.07-6.59,22.13,22.13,0,0,0-1.13-7.44,10.11,10.11,0,0,0-3.45-4.85,9.54,9.54,0,0,0-5.84-1.71,8.46,8.46,0,0,0-5.49,1.71,9.87,9.87,0,0,0-3.09,4.55,19,19,0,0,0-1,6.27,22.17,22.17,0,0,0,1.12,7.41,10.33,10.33,0,0,0,3.42,5A9.31,9.31,0,0,0,467.36,603.25Z" transform="translate(-272.3 -233.19)"/><path d="M486.66,605v-1.58l3.33-1.18a1.6,1.6,0,0,0,.6-.36.92.92,0,0,0,.22-.67v-22.8a1,1,0,0,0-.23-.68,1.5,1.5,0,0,0-.59-.34l-3.46-1.09V574.8h8.9l15,20.86,1.67,2.72h.35V578.53a.77.77,0,0,0-.26-.64,2.38,2.38,0,0,0-.61-.33l-3.29-1.22V574.8h11.19v1.54l-3.31,1.22a2.05,2.05,0,0,0-.56.33.76.76,0,0,0-.28.64v21.83l-.65,4.89h-2.58l-16.36-22.61-1.66-2.76h-.35v21.37a.89.89,0,0,0,.26.69,1.56,1.56,0,0,0,.56.34l3.27,1.18V605Z" transform="translate(-272.3 -233.19)"/></svg>